{"title":"The Blacklist S01E11 HDTV x264 AAC [GWC].mp4","uid":9475895,"size":133313153,"categoryP":"video","categoryS":"tv_shows","magnet":"?xt=urn:btih:f7cd58d3f28aa0809c2c2d7a322525061ea031ba&amp;dn=The+Blacklist+S01E11+HDTV+x264+AAC+%5BGWC%5D.mp4&amp;tr=udp%3A%2F%2Ftracker.openbittorrent.com%3A80&amp;tr=udp%3A%2F%2Fopen.demonii.com%3A1337&amp;tr=udp%3A%2F%2Ftracker.coppersurfer.tk%3A6969&amp;tr=udp%3A%2F%2Fexodus.desync.com%3A6969","seeders":1,"leechers":0,"uploader":"canc232","files":1,"time":1389694248,"description":"The Blacklist S01E11 HDTV x264 AAC [GWC] \n\n\n\nSCREENS ; &lt;a href=&quot;\nhttp://s20.postimg.org/4z5hpx7y5/The_Blacklist_S01_E11_HDTV_x264_AAC_GWC_14_33_1.jpg&quot; rel=&quot;nofollow&quot; target=&quot;_NEW&quot;&gt;\nhttp://s20.postimg.org/4z5hpx7y5/The_Blacklist_S01_E11_HDTV_x264_AAC_GWC_14_33_1.jpg&lt;/a&gt; &lt;a href=&quot;\nhttp://s20.postimg.org/chomyjzb1/The_Blacklist_S01_E11_HDTV_x264_AAC_GWC_14_33_4.jpg&quot; rel=&quot;nofollow&quot; target=&quot;_NEW&quot;&gt;\nhttp://s20.postimg.org/chomyjzb1/The_Blacklist_S01_E11_HDTV_x264_AAC_GWC_14_33_4.jpg&lt;/a&gt; &lt;a href=&quot;\nhttp://s20.postimg.org/x0jj3md8d/The_Blacklist_S01_E11_HDTV_x264_AAC_GWC_14_33_5.jpg&quot; rel=&quot;nofollow&quot; target=&quot;_NEW&quot;&gt;\nhttp://s20.postimg.org/x0jj3md8d/The_Blacklist_S01_E11_HDTV_x264_AAC_GWC_14_33_5.jpg&lt;/a&gt;\n\n\n\nMEDIA INFO:\nGeneral \nFormat : MPEG-4 \nFormat profile : Base Media \nFile size : 127 MiB \nDuration : 42mn 33s\nOverall bit rate : 418 Kbps \n\nVideo \nFormat : AVC \nFormat profile : &lt;a class=&quot;__cf_email__&quot; href=&quot;/cdn-cgi/l/email-protection&quot; data-cfemail=&quot;4f072628270f037c617f&quot;&gt;[email&amp;#160;protected]&lt;/a&gt;&lt;script cf-hash='f9e31' type=&quot;text/javascript&quot;&gt;\n/* &lt;![CDATA[ */!function(){try{var t=&quot;currentScript&quot;in document?document.currentScript:function(){for(var t=document.getElementsByTagName(&quot;script&quot;),e=t.length;e--;)if(t[e].getAttribute(&quot;cf-hash&quot;))return t[e]}();if(t&amp;&amp;t.previousSibling){var e,r,n,i,c=t.previousSibling,a=c.getAttribute(&quot;data-cfemail&quot;);if(a){for(e=&quot;&quot;,r=parseInt(a.substr(0,2),16),n=2;a.length-n;n+=2)i=parseInt(a.substr(n,2),16)^r,e+=String.fromCharCode(i);e=document.createTextNode(e),c.parentNode.replaceChild(e,c)}}}catch(u){}}();/* ]]&gt; */&lt;/script&gt; \nFormat settings, CABAC : Yes \nFormat settings, ReFrames : 4 frames \nDuration : 42mn 33s \nBit rate : 355 Kbps \nMaximum bit rate : 1 580 Kbps \nWidth : 720 pixels \nHeight : 404 pixels \nDisplay aspect ratio : 16:9 \nFrame rate : 23.976 fps \nStream size : 108 MiB (85%) \nTitle : The Blacklist S01E11 HDTV x264 AAC [GWC] \nWriting library : x264 core\n\nAudio \nFormat : AAC \nFormat profile : HE-AAC / LC \nDuration : 42mn 33s \nBit rate mode : Variable \nChannel(s) : 2 channels \nSampling rate : 48.0 KHz / 24.0 KHz \nStream size : 18.3 MiB \nLanguage : English ","torrent":{"xt":"urn:btih:f7cd58d3f28aa0809c2c2d7a322525061ea031ba","amp;dn":"The+Blacklist+S01E11+HDTV+x264+AAC+%5BGWC%5D.mp4","amp;tr":["udp%3A%2F%2Ftracker.openbittorrent.com%3A80","udp%3A%2F%2Fopen.demonii.com%3A1337","udp%3A%2F%2Ftracker.coppersurfer.tk%3A6969","udp%3A%2F%2Fexodus.desync.com%3A6969"],"infoHash":"f7cd58d3f28aa0809c2c2d7a322525061ea031ba","infoHashBuffer":{"type":"Buffer","data":[247,205,88,211,242,138,160,128,156,44,45,122,50,37,37,6,30,160,49,186]},"announce":[],"urlList":[]}}